<?xml version="1.0" encoding="utf-8"?>
<!-- Generator: Adobe Illustrator 23.0.2, SVG Export Plug-In . SVG Version: 6.00 Build 0)  -->
<svg version="1.0" id="_图层_1" xmlns="http://www.w3.org/2000/svg" xmlns:xlink="http://www.w3.org/1999/xlink" x="0px" y="0px"
	 viewBox="0 0 19 26" style="enable-background:new 0 0 19 26;" xml:space="preserve">
<style type="text/css">
	.st0{fill:#F5F6F7;}
	.st1{fill:#93989C;}
	.st2{fill:#881C21;}
	.st3{fill:#005529;}
</style>
<g>
	<path class="st0" d="M2.01,0.12999H17c1.0383,0,1.88,0.8417,1.88,1.88v21.99c0,1.0383-0.8417,1.88-1.88,1.88H2.01
		c-1.0383,0-1.88-0.8417-1.88-1.88v-21.99C0.13,0.9717,0.9717,0.12999,2.01,0.12999z"/>
	<path class="st1" d="M17,0.24999c0.96,0,1.75,0.79,1.75,1.75v22c0,0.96-0.79,1.75-1.75,1.75H2c-0.96,0-1.75-0.79-1.75-1.75v-22
		c0-0.96,0.79-1.75,1.75-1.75H17 M17-0.00001H2c-1.1,0-2,0.9-2,2v22c0,1.1,0.9,2,2,2h15c1.1,0,2-0.9,2-2v-22
		C19,0.89999,18.1-0.00001,17-0.00001L17-0.00001z"/>
</g>
<g>
	<path class="st2" d="M10.89253,6.10574c-0.05095-0.13076-0.12906-0.24878-0.2284-0.34812
		c-0.0985-0.09935-0.21736-0.17661-0.34728-0.2284c-0.12057-0.04755-0.24878-0.07218-0.37784-0.07218
		c-0.12906,0-0.25727,0.02463-0.37699,0.07218C9.43127,5.58101,9.31324,5.65827,9.2139,5.75762
		C9.11456,5.85696,9.03729,5.97498,8.9855,6.10574C8.93795,6.22546,8.91333,6.35367,8.91333,6.48273S8.93795,6.74,8.9855,6.86057
		c0.05179,0.12991,0.12906,0.24878,0.2284,0.34727c0.09934,0.09935,0.21736,0.17746,0.34812,0.2284
		c0.11972,0.04755,0.24793,0.07218,0.37699,0.07218c0.12906,0,0.25727-0.02463,0.37784-0.07218
		c0.12991-0.05094,0.24878-0.12906,0.34728-0.2284c0.09934-0.09849,0.17745-0.21736,0.2284-0.34727
		C10.94008,6.74,10.9647,6.61179,10.9647,6.48273S10.94008,6.22546,10.89253,6.10574z M10.25657,6.63981
		c-0.01953,0.0484-0.04839,0.0917-0.08491,0.12906c-0.03651,0.03651-0.07981,0.06453-0.12821,0.08406
		C9.9993,6.87076,9.95175,6.87925,9.9042,6.87925c-0.0484,0-0.0951-0.00849-0.1401-0.02632
		C9.71656,6.8334,9.67241,6.80538,9.63589,6.76802C9.59938,6.73151,9.57052,6.68821,9.55183,6.63981
		c-0.01783-0.04415-0.02717-0.0917-0.02717-0.13925s0.00934-0.0951,0.02717-0.13925c0.01868-0.0484,0.04755-0.09255,0.08406-0.12906
		C9.67241,6.19574,9.71656,6.16687,9.7641,6.14819c0.045-0.01783,0.0917-0.02632,0.1401-0.02632
		c0.04755,0,0.0951,0.00849,0.13925,0.02632c0.04839,0.01868,0.0917,0.04755,0.12821,0.08406
		c0.03651,0.03651,0.06538,0.08066,0.08491,0.12906c0.01698,0.04415,0.02632,0.0917,0.02632,0.13925
		S10.27355,6.59566,10.25657,6.63981z"/>
	<path class="st3" d="M11.44698,24.03574c-0.00255-0.00424-0.00594-0.00934-0.00849-0.01358
		c-0.02463-0.03821-0.0484-0.07557-0.07302-0.11293c-0.045-0.07047-0.08915-0.14179-0.13415-0.21312
		c-0.07896-0.12736-0.15623-0.25642-0.2301-0.38718c-0.06538-0.11462-0.12821-0.23095-0.1868-0.34982
		c-0.10868-0.21906-0.19868-0.43218-0.27595-0.66398c-0.08151-0.24368-0.14519-0.49076-0.20038-0.74124
		c-0.01868-0.08151-0.03566-0.16302-0.05179-0.24539c-0.01783-0.0917-0.03482-0.18425-0.04925-0.2768
		c-0.03821-0.23265-0.06538-0.46699-0.08745-0.70218c-0.01444-0.15114-0.02632-0.30227-0.03567-0.45426
		c-0.01188-0.17915-0.02123-0.35916-0.02887-0.53916c-0.00849-0.21397-0.01528-0.42709-0.02038-0.64021
		c-0.00509-0.25133-0.00849-0.50266-0.01019-0.75313c-0.0017-0.24878-0.0017-0.49756,0-0.74634
		c0.00084-0.28275,0.00424-0.56549,0.00764-0.84823c0.00509-0.3201,0.01104-0.63936,0.01868-0.95861
		c0.00764-0.36001,0.01783-0.71917,0.02802-1.07833c0.00509-0.16642,0.01019-0.33284,0.01613-0.49926
		c0.00255-0.08576,0.00509-0.17152,0.00849-0.25812c0.00084-0.02207,0.00084-0.0433,0.00169-0.06538
		c0.00085-0.01104,0.00085-0.02208,0.0017-0.03312v-0.01189c0-0.00085,0-0.00085,0-0.00169c0,0,0,0-0.00085,0h-0.0034
		c-0.00255,0.00084-0.00424,0.00084-0.00594,0.00084c-0.01359,0.00085-0.02802,0.00255-0.04245,0.00425
		c-0.11293,0.01019-0.2267,0.02038-0.33963,0.03141c-0.2267,0.02123-0.45341,0.04245-0.68011,0.06368
		c-0.11377,0.01019-0.2267,0.02123-0.33963,0.03142c-0.01443,0.00169-0.02887,0.00254-0.0433,0.00424
		c-0.00679,0.00085-0.01358,0.00085-0.02123,0.0017c-0.0034,0.00084-0.00679,0.00084-0.01019,0.00084
		c-0.0017,0.00085-0.00339,0.00085-0.00509,0.00085c-0.00085,0-0.00085,0-0.0017,0c0,0.00085,0.00085,0.00085,0.0017,0.0017
		c0.01868,0.01274,0.03651,0.02632,0.05519,0.0399c0.03736,0.02633,0.07472,0.05265,0.11123,0.07897
		c0.14859,0.10528,0.29633,0.21057,0.44492,0.3167c0.07387,0.05264,0.14859,0.10528,0.22246,0.15793
		c0.03736,0.02632,0.07387,0.05264,0.11123,0.07896c0.00934,0.00679,0.01868,0.01359,0.02802,0.02038
		c0,0,0.00085,0.00085,0.00169,0.00085c0,0.00085,0,0.00085,0,0.00085s0,0,0,0.00085v0.00254
		c0,0.0017-0.00084,0.00255-0.00084,0.00425c0,0.00339-0.00085,0.00679-0.00085,0.01019
		c-0.0017,0.01358-0.0034,0.02717-0.00509,0.04075c-0.01359,0.11632-0.02717,0.23265-0.04076,0.34897
		c-0.00594,0.05774-0.01273,0.11632-0.01953,0.17406c-0.0034,0.02972-0.00679,0.05858-0.01019,0.08745
		c-0.00085,0.00764-0.0017,0.01443-0.00255,0.02208c-0.00084,0.0034-0.00084,0.00679-0.00169,0.01104
		c0,0.00169,0,0.00339-0.00085,0.00509v0.00254c0,0.00085,0,0.00085,0,0.0017c-0.00085,0-0.00085,0-0.0017,0
		c-0.02717-0.01613-0.05519-0.03141-0.08321-0.0467c-0.22161-0.12482-0.44322-0.24878-0.66483-0.3736
		c-0.11123-0.06198-0.22161-0.12396-0.33284-0.18595c-0.05519-0.03142-0.11038-0.06283-0.16642-0.0934
		c-0.02717-0.01613-0.05519-0.03141-0.08236-0.0467c-0.00764-0.00425-0.01443-0.00764-0.02123-0.01189
		c-0.0017-0.00085-0.0034-0.0017-0.00509-0.00255c0-0.00084-0.00085-0.00084-0.00085-0.00084v-0.00594
		c0-0.00594,0.00085-0.01104,0.00085-0.01698c0.00254-0.08915,0.00509-0.17831,0.00764-0.26746
		c0.0017-0.04415,0.00255-0.08915,0.00425-0.13415c0.00084-0.02208,0.00169-0.04415,0.00169-0.06623
		c0.00085-0.01104,0.00085-0.02293,0.0017-0.03397v-0.02038c0-0.00085,0-0.00085,0-0.00169l-0.00085-0.00085
		c-0.00085-0.00085-0.0017-0.00085-0.00254-0.0017c-0.0034-0.00254-0.00679-0.00509-0.01104-0.00764
		c-0.2284-0.16642-0.45765-0.33369-0.68691-0.50011c0.0917,0.65124,0.19359,1.30248,0.30992,1.95033
		c0.09679,0.54341,0.20378,1.08513,0.3235,1.62429c0.07641,0.34558,0.15793,0.68945,0.24623,1.03248
		c0.07812,0.30397,0.16048,0.60709,0.24793,0.90936c0.07896,0.27171,0.16132,0.54171,0.24793,0.81087
		c0.0399,0.12567,0.08151,0.25133,0.12312,0.37615l0.03057,0.0917c0.01019,0.03057,0.02038,0.06029,0.03057,0.09085
		c0.02038,0.05944,0.04075,0.11887,0.06114,0.17831c0.09934,0.28868,0.20293,0.57482,0.3167,0.85757
		c0.11038,0.27085,0.22925,0.53662,0.3634,0.79644c0.13586,0.26406,0.28529,0.51624,0.45171,0.76247
		c0.17916,0.26322,0.3736,0.512,0.58417,0.75144c0.15963,0.1817,0.3269,0.35491,0.50011,0.52303
		c0.02293,0.02208,0.04585,0.04415,0.06878,0.06623c0.01189,0.01103,0.02378,0.02207,0.03481,0.03396
		c0.00339,0.00255,0.00594,0.00509,0.00934,0.00764c0.00169,0.0017,0.00254,0.0034,0.00424,0.00424
		C11.44783,24.03659,11.44783,24.03659,11.44698,24.03574z M9.49155,18.40125c0,0,0,0,0,0.00085
		C9.4907,18.40125,9.4907,18.40125,9.4907,18.40125c-0.00085,0-0.00085,0-0.0017-0.00085
		c-0.00085-0.00085-0.0017-0.00085-0.00254-0.0017c-0.00255-0.0017-0.00425-0.00254-0.00679-0.00424
		c-0.00424-0.00254-0.00849-0.00509-0.01274-0.00849c-0.00849-0.00594-0.01698-0.01189-0.02547-0.01868
		C9.42193,18.352,9.4041,18.33672,9.38711,18.31974c-0.04245-0.0399-0.08066-0.08491-0.11632-0.13076
		c-0.0416-0.05434-0.07981-0.11123-0.11547-0.17067c-0.04075-0.06878-0.07811-0.14009-0.11208-0.21312
		c-0.06198-0.135-0.11293-0.27595-0.15368-0.41945c-0.04075-0.14349-0.07133-0.28953-0.0934-0.43642
		c0.13925,0.05094,0.27934,0.10188,0.41945,0.15283c0.05943,0.02123,0.11887,0.04245,0.17745,0.06453
		c0.01528,0.00509,0.02972,0.01019,0.045,0.01613c0.00679,0.00254,0.01443,0.00509,0.02208,0.00764
		c0.0034,0.0017,0.00679,0.00255,0.01103,0.00425c0,0,0.00085,0,0.00085,0.00085c0.00085,0,0.00085,0,0.00085,0s0,0,0.00085,0
		v0.01528c0.00085,0.05264,0.0017,0.10529,0.00254,0.15793c0.00425,0.29802,0.00849,0.59605,0.01274,0.89408
		c0.00085,0.03481,0.00085,0.06963,0.0017,0.10443v0.02548c0.00085,0.00254,0.00085,0.00424,0.00085,0.00679
		C9.49155,18.4004,9.49155,18.4004,9.49155,18.40125z M8.5304,15.92194l0.05434-0.77181l0.91276,0.40161l0.01104,1.07663
		L8.5304,15.92194z"/>
	<path class="st3" d="M14.66685,1.93802c-1.95444,1.59349-2.83923,1.58029-3.51932,1.43282
		c-0.6801-0.14746-1.1555-0.42918-1.52232-0.66688C9.25838,2.46625,9.00013,2.27257,8.66852,2.16985
		c-0.33161-0.1027-0.73659-0.11445-1.0814,0.00294C7.24231,2.29018,6.95765,2.53668,6.81826,2.77732
		C6.67887,3.01796,6.68473,3.25272,6.7691,3.599c0.08437,0.34629,0.24725,0.80409,0.45854,0.98897
		C6.42312,4.54174,5.61859,4.49551,4.81408,4.44928c2.34768,1.2934,3.11937,1.51078,3.77475,1.48413
		C8.48319,5.41398,8.65487,5.11025,8.92265,4.9041c0.26778-0.20615,0.63167-0.31474,0.98823-0.27365
		c0.35655,0.04108,0.70577,0.23183,1.02124,0.58912c0.31547,0.35728,0.59719,0.88112,0.6148,1.42695
		c0.24944-0.3052,0.49888-0.6104,0.74832-0.91559c-0.12325-0.54584-0.66908-1.03885-0.89798-1.21493
		c0.8145-0.13004,1.57532-0.43981,2.203-0.92347C14.22793,3.10885,14.72246,2.45129,14.66685,1.93802z M8.3859,4.42943
		C8.16853,4.2664,7.94571,4.11967,7.80532,3.94848c-0.1404-0.17118-0.19836-0.36682-0.15489-0.55521
		c0.04348-0.1884,0.1884-0.36954,0.42389-0.42751c0.23549-0.05797,0.56156,0.00724,0.83871,0.13767
		c0.27715,0.13042,0.50541,0.32606,1.0788,0.73419C9.63368,3.83761,8.83799,4.0778,8.3859,4.42943z"/>
	<path d="M11.71104,8.50609l-0.08321-0.0934C11.67538,8.41693,11.71274,8.45769,11.71104,8.50609z"/>
	<path class="st3" d="M17.146,11.48041c-0.00764-0.07217-0.02123-0.14264-0.04075-0.21227
		c-0.00934-0.03396-0.01953-0.06708-0.03142-0.10019c-0.01104-0.03226-0.02463-0.06538-0.03821-0.0968
		c-0.06029-0.13585-0.14094-0.26067-0.23944-0.3702c-0.20888-0.23265-0.48822-0.38888-0.79559-0.44407
		c-0.28614-0.0518-0.58162-0.01359-0.84568,0.11038c-0.28189,0.13246-0.51199,0.35406-0.65379,0.63171
		c-0.06878,0.13331-0.11463,0.2768-0.13755,0.42454c-0.00594,0.03566-0.01019,0.07047-0.01274,0.10613
		c-0.00085,0.01783-0.00255,0.03481-0.0034,0.05264v0.02547c-0.00085,0.00255-0.00085,0.00424-0.00085,0.00679v0.00339
		c0,0-0.00085,0-0.00085,0.00085h-0.00255c-0.00509,0-0.01019,0.00085-0.01613,0.0017
		c-0.08575,0.00764-0.17151,0.01528-0.25727,0.02377c-0.34303,0.03141-0.68606,0.06368-1.02908,0.09595
		c-0.08576,0.00764-0.17152,0.01528-0.25727,0.02378c-0.01104,0.00085-0.02123,0.00169-0.03226,0.00255
		c-0.00255,0.00085-0.00509,0.00085-0.00764,0.00085c-0.0017,0-0.00255,0-0.00424,0.00085c-0.00085,0-0.0017,0-0.0017,0V11.7674
		c0,0,0,0,0.00085-0.00085c0.00085-0.00085,0.00169-0.00169,0.00339-0.00255c0.0017-0.0017,0.00424-0.00424,0.00679-0.00594
		c0.00934-0.00849,0.01953-0.01783,0.02887-0.02632c0.02208-0.02123,0.04415-0.0433,0.06538-0.06538
		c0.02547-0.02717,0.0501-0.05349,0.07472-0.08151c0.02802-0.03142,0.05519-0.06283,0.08236-0.0951
		c0.03057-0.03651,0.06029-0.07217,0.09001-0.10868c0.06623-0.08321,0.13161-0.16812,0.19444-0.25302
		c0.07132-0.0968,0.1401-0.19359,0.20803-0.29293c0.07217-0.10613,0.14264-0.21312,0.21142-0.3218
		c0.14094-0.225,0.2768-0.4619,0.39652-0.69879c0.05434-0.10783,0.10614-0.21736,0.15453-0.32859
		c0.0467-0.10783,0.09085-0.21651,0.13246-0.32689c0.07811-0.20973,0.14519-0.42454,0.19869-0.6419
		c0.05009-0.20039,0.08915-0.40501,0.11377-0.61049c0.02293-0.1851,0.03566-0.3736,0.03226-0.5604
		c-0.00085-0.04415-0.0017-0.08745-0.00424-0.13076c-0.00085-0.02123-0.00255-0.04245-0.00424-0.06368
		c-0.0017-0.02123-0.0034-0.0416-0.00509-0.06283c-0.00764-0.07981-0.01868-0.15963-0.03311-0.23859
		c-0.02547-0.14349-0.06368-0.28529-0.11547-0.42114c-0.045-0.11887-0.10189-0.23435-0.17237-0.34048
		c-0.06029-0.09255-0.13246-0.17915-0.21566-0.25302C14.108,5.7695,14.02648,5.71432,13.93478,5.67356
		c-0.08406-0.03736-0.17321-0.06198-0.26576-0.07302c-0.1834-0.02208-0.36935,0.00934-0.54086,0.07472
		c-0.0883,0.03397-0.17151,0.07642-0.25132,0.12651c-0.08236,0.05179-0.15963,0.11038-0.23265,0.17322
		c-0.07727,0.06708-0.14944,0.1384-0.21906,0.21311c-0.07387,0.07897-0.14349,0.16133-0.21142,0.24454
		c-0.03567,0.04415-0.07048,0.08831-0.10529,0.13246c-0.01783,0.02293-0.03566,0.04585-0.05264,0.06878
		c-0.01783,0.02293-0.03566,0.04585-0.05349,0.06963c-0.07132,0.09425-0.14179,0.19019-0.21311,0.28529
		c-0.07048,0.09594-0.1418,0.19189-0.21397,0.28698c-0.06962,0.09255-0.1401,0.18425-0.21227,0.27511
		C11.295,7.63493,11.22622,7.71814,11.1532,7.7988c-0.06538,0.07302-0.13415,0.14434-0.20633,0.21142
		c-0.12991,0.12142-0.26916,0.2284-0.42623,0.31416c-0.07472,0.04075-0.15199,0.07641-0.23265,0.10614
		c-0.08236,0.03057-0.16642,0.05434-0.25218,0.07217c-0.19019,0.03821-0.38124,0.045-0.57313,0.02547
		C9.354,8.51628,9.24702,8.49674,9.14088,8.47042C9.0254,8.44241,8.91078,8.40674,8.8055,8.34731
		C8.7503,8.31589,8.69936,8.27853,8.65351,8.23438C8.60341,8.18598,8.56096,8.13079,8.527,8.06966
		c-0.0416-0.07217-0.07047-0.15029-0.0917-0.2301C8.42341,7.79201,8.41407,7.74361,8.40728,7.69521
		C8.39963,7.64003,8.39454,7.58483,8.392,7.52965C8.38775,7.44134,8.38945,7.35219,8.39454,7.26473
		C8.40133,7.15944,8.41322,7.05501,8.4285,6.95142c0.01868-0.12312,0.0416-0.24453,0.06878-0.36595
		C8.51171,6.5167,8.52785,6.44877,8.54483,6.38169c0.0017-0.00509,0.00255-0.00934,0.00339-0.01358
		c0.00085-0.00255,0.00085-0.00425,0.0017-0.00679V6.36046c0,0,0,0-0.00085,0H8.54822
		c-0.00339-0.00085-0.00594-0.0017-0.00934-0.00255C8.53294,6.35707,8.52615,6.35537,8.52021,6.35452
		C8.50832,6.35197,8.49558,6.34942,8.4837,6.34688C8.30029,6.31121,8.11774,6.2815,7.93264,6.26027
		c-0.16047-0.01868-0.3201-0.03057-0.48143-0.03312C7.31027,6.22376,7.16932,6.22801,7.02837,6.23905
		C6.90271,6.25008,6.77535,6.26707,6.65138,6.29169C6.53675,6.31377,6.42383,6.34263,6.3126,6.37914
		C6.10797,6.44622,5.91608,6.53792,5.73947,6.66189C5.69702,6.69161,5.65626,6.72302,5.61636,6.75613
		C5.5756,6.78925,5.53739,6.82406,5.50088,6.86057C5.42276,6.93784,5.35569,7.0202,5.29625,7.11105
		C5.22918,7.21379,5.17568,7.32332,5.13238,7.43794c-0.02462,0.06538-0.045,0.13161-0.06368,0.19868
		C5.04832,7.7122,5.03134,7.78776,5.01776,7.86418C5.00162,7.94909,4.98889,8.03569,4.9804,8.1223
		C4.96936,8.22334,4.96341,8.32353,4.96171,8.42542c-0.00254,0.12142,0,0.24368,0.00679,0.3651
		C4.977,8.93997,4.99059,9.0894,5.00841,9.23799c0.02208,0.18255,0.04925,0.36595,0.07981,0.54766
		c0.03821,0.2233,0.08066,0.44492,0.12736,0.66652c0.05604,0.26916,0.11632,0.53747,0.18085,0.80492
		c0.03651,0.15368,0.07387,0.30652,0.11293,0.46021c0.02038,0.08151,0.04075,0.16302,0.06198,0.24538
		c0.00594,0.02038,0.01104,0.0416,0.01613,0.06283c0.0034,0.01019,0.00594,0.02123,0.00849,0.03142
		c0.00169,0.00509,0.00254,0.01103,0.00424,0.01613c0.00085,0.00255,0.0017,0.0051,0.0017,0.00764
		c0.00084,0.0017,0.00084,0.0034,0.00169,0.00424c0,0.00085,0,0.0017,0,0.0017c0,0.00085,0,0.00085,0,0.00085
		c-0.00085,0-0.00085,0-0.00085,0c-0.00169,0-0.00254,0-0.00424,0.00085c-0.00254,0-0.00509,0-0.00764,0.00084
		c-0.00425,0.00085-0.00934,0.0017-0.01444,0.00255c-0.3167,0.0484-0.63341,0.0968-0.94927,0.14604
		c-0.0399,0.00594-0.07896,0.01189-0.11887,0.01783c-0.01953,0.00339-0.03991,0.00594-0.05944,0.00934
		c-0.00509,0.00085-0.01019,0.0017-0.01443,0.0017c-0.00255,0.00085-0.00509,0.00085-0.00764,0.0017c-0.00085,0-0.00085,0-0.00085,0
		H4.4251v-0.00255c-0.00085-0.00085-0.00085-0.00254-0.00085-0.00339C4.4217,12.25222,4.42,12.24203,4.41746,12.23185
		c-0.01868-0.08236-0.04585-0.16303-0.08066-0.24114c-0.07302-0.16302-0.1783-0.30992-0.31076-0.43048
		c-0.15878-0.1452-0.35067-0.24793-0.5587-0.30142c-0.20038-0.0501-0.40926-0.05264-0.61134-0.00679
		c-0.21227,0.04925-0.41011,0.15029-0.57313,0.29548c-0.07896,0.07047-0.14944,0.14943-0.20888,0.23689
		c-0.05774,0.08321-0.10443,0.17321-0.14094,0.26661c-0.07727,0.19953-0.10444,0.41435-0.07896,0.62662
		c0.02547,0.21481,0.10444,0.41945,0.22925,0.59605c0.11887,0.16812,0.27595,0.30567,0.45765,0.40162
		c0.19274,0.10104,0.40841,0.15283,0.62662,0.14943c0.10698-0.00169,0.21312-0.01698,0.31586-0.04415
		c0.05009-0.01359,0.09934-0.02972,0.14689-0.0484c0.02378-0.00934,0.0467-0.01953,0.06963-0.03057
		c0.01104-0.00509,0.02208-0.01019,0.03312-0.01613c0.00085,0,0.00085,0,0.00085-0.00085c0.00084,0,0.00084,0,0.00084,0h0.00255
		c0.00085-0.00085,0.0017-0.00085,0.00339-0.0017c0.00255,0,0.00424-0.00085,0.00679-0.0017
		c0.00509-0.00084,0.00934-0.00254,0.01443-0.00339c0.15283-0.0399,0.30482-0.07981,0.45765-0.12057
		c0.07642-0.01953,0.15198-0.03991,0.2284-0.05944c0.03821-0.01019,0.07642-0.02038,0.11462-0.02972
		c0.01868-0.00509,0.03821-0.01019,0.05689-0.01529c0.00934-0.00254,0.01953-0.00509,0.02887-0.00764
		c0.00424-0.00085,0.00934-0.00255,0.01444-0.00339c0.00169-0.00085,0.00424-0.0017,0.00679-0.00255
		c0.00085,0,0.00255,0,0.0034-0.00085c0.00084,0,0.00084,0,0.00084,0h0.00085c-0.00339,0.0034-0.00679,0.00679-0.01019,0.01019
		c-0.01358,0.01359-0.02632,0.02717-0.0399,0.04076c-0.0518,0.05434-0.10444,0.10698-0.15793,0.15963
		c-0.10189,0.10189-0.20548,0.20123-0.31076,0.29802c-0.19444,0.18-0.39397,0.35237-0.6003,0.51879
		c-0.18255,0.14774-0.36935,0.28953-0.55954,0.42623c-0.16727,0.11887-0.33709,0.23435-0.50945,0.34558
		c-0.07727,0.04925-0.15453,0.0985-0.2318,0.14689c-0.03651,0.02293-0.07302,0.045-0.10953,0.06793
		c-0.00509,0.00254-0.00934,0.00509-0.01359,0.00849c-0.00169,0-0.00254,0.00085-0.00339,0.0017
		c-0.00085,0-0.00085,0.00085-0.0017,0.00085l-0.00084,0.00084c0.00254,0,0.00339,0.00085,0.00509,0.00085
		c0.00849,0,0.01698,0.00085,0.02547,0.00085c0.01698,0.00085,0.03396,0.00085,0.05094,0.00085
		c0.07642,0,0.15453-0.00679,0.2301-0.01698c0.08745-0.01273,0.17661-0.02972,0.26321-0.05009
		c0.09765-0.02293,0.19529-0.04925,0.29123-0.07897c0.10613-0.03311,0.21058-0.06878,0.31416-0.10698
		c0.22755-0.08491,0.45426-0.1834,0.67247-0.28869c0.48738-0.23604,0.97984-0.52982,1.41542-0.85247
		c0.10953-0.08066,0.21651-0.16472,0.32095-0.25218c0.02547-0.02123,0.05095-0.04245,0.07642-0.06453
		c0.01273-0.01104,0.02547-0.02123,0.03736-0.03226c0.0017-0.00169,0.00339-0.0034,0.00509-0.00424
		c0.00085-0.00085,0.0017-0.00169,0.0017-0.00254c0.00084,0,0.00084,0,0.00084,0s0,0,0,0.00085
		c0.00085,0,0.00085,0.00084,0.00085,0.00169c0.0017,0.00509,0.00255,0.00934,0.0034,0.01444
		c0.00254,0.01019,0.00509,0.02038,0.00764,0.02972c0.01953,0.07896,0.03991,0.15793,0.06029,0.23689
		c0.07896,0.31162,0.16048,0.62238,0.24454,0.93229c0.16132,0.5952,0.33114,1.18786,0.5103,1.77797
		c0.16642,0.54681,0.33963,1.09276,0.52303,1.63363c0.08406,0.25132,0.17067,0.5018,0.25982,0.75058
		c0.08321,0.23435,0.16897,0.46784,0.25642,0.70049c0.08151,0.21651,0.16557,0.43133,0.25132,0.64615
		c0.07812,0.19614,0.15963,0.39142,0.24284,0.58586c0.07472,0.17491,0.15198,0.34897,0.23265,0.52219
		c0.07047,0.15283,0.14349,0.30397,0.21991,0.45341c0.06538,0.12736,0.13416,0.25557,0.20548,0.37954
		c0.01613,0.02802,0.03227,0.05519,0.04924,0.08321c0.00764,0.01274,0.01613,0.02632,0.02378,0.03991
		c0.00424,0.00594,0.00764,0.01273,0.01189,0.01868c0.00084,0.00085,0.00084,0.0017,0.00169,0.00255l0.00085,0.00084
		c0,0,0,0,0-0.00084c-0.00085-0.0017-0.0017-0.00425-0.0017-0.00594c-0.00169-0.00509-0.00254-0.00934-0.00339-0.01359
		c-0.01953-0.07557-0.03821-0.15028-0.05689-0.225c-0.08236-0.3252-0.16642-0.64955-0.25133-0.97475
		c-0.0951-0.3668-0.19189-0.73276-0.28868-1.09955c-0.10104-0.38379-0.20208-0.76672-0.30397-1.14965
		c-0.02463-0.09595-0.0501-0.19104-0.07557-0.28699c-0.02462-0.09425-0.04925-0.18849-0.07472-0.28359
		c-0.04925-0.1885-0.09934-0.37784-0.14689-0.56718c-0.05095-0.19869-0.10019-0.39737-0.14859-0.5969
		c-0.05264-0.22076-0.10274-0.44152-0.15114-0.66313c-0.12142-0.5536-0.2301-1.10975-0.33114-1.66759
		c-0.06538-0.35831-0.12736-0.71662-0.1868-1.07578c-0.07133-0.42793-0.13925-0.85672-0.20548-1.28551
		c-0.00934-0.05859-0.01868-0.11802-0.02717-0.17661c0-0.00084-0.00085-0.00254-0.00085-0.0034c0,0,0,0,0-0.00085
		c0.00254-0.00169,0.00594-0.00254,0.00849-0.00424l0.03312-0.01528c0.02208-0.01019,0.04415-0.02123,0.06623-0.03142
		c0.04415-0.02038,0.0883-0.0416,0.13246-0.06198c0.01104-0.00509,0.02207-0.01019,0.03311-0.01529
		c0.00085-0.00084,0.00085-0.00084,0.0017-0.00084c0,0,0,0,0.00085,0.00084c0.00085,0.00085,0.00085,0.00085,0.0017,0.0017
		c0.00169,0.0017,0.00339,0.00339,0.00509,0.00424c0.00339,0.0034,0.00764,0.00679,0.01104,0.01019
		c0.01443,0.01274,0.02887,0.02463,0.0433,0.03736c0.05604,0.0484,0.11293,0.09425,0.17237,0.13925
		c0.11123,0.08236,0.2267,0.15708,0.34897,0.22331c0.22246,0.12057,0.45426,0.20803,0.70049,0.26661
		c0.24623,0.05859,0.49502,0.08576,0.74719,0.0951c0.06114,0.0017,0.12227,0.00339,0.18425,0.00339
		c0.06028,0.00085,0.12057,0,0.18085-0.00169c0.11887-0.0034,0.23774-0.01019,0.35576-0.02208
		c0.22415-0.02293,0.44916-0.06368,0.66398-0.13161c0.20378-0.06538,0.39907-0.15453,0.57568-0.2768
		c0.00509-0.00425,0.01019-0.00764,0.01613-0.01189c0.00254-0.0017,0.00509-0.0034,0.00764-0.00509
		c0.0017-0.0017,0.00255-0.00255,0.00425-0.00339c0,0,0.00084,0,0.00084-0.00085c0,0,0,0,0.00085,0c0,0,0,0,0,0.00085
		c-0.00085,0.00084-0.00085,0.00254-0.00085,0.00339c-0.00169,0.01953-0.00339,0.03906-0.00509,0.05859
		c-0.00339,0.03905-0.00679,0.07896-0.00934,0.11802c-0.00679,0.07811-0.01273,0.15708-0.01868,0.23519
		c-0.01274,0.15708-0.02378,0.31416-0.03397,0.47124c-0.02038,0.31331-0.03736,0.62662-0.05094,0.93993
		c-0.02547,0.60964-0.03821,1.22522-0.03651,1.83486c0.00084,0.29123,0.00509,0.58247,0.01358,0.87455
		c0.00849,0.27765,0.01953,0.5553,0.03566,0.8321c0.01444,0.26067,0.03312,0.52134,0.05689,0.78115
		c0.02123,0.24029,0.04755,0.47973,0.07811,0.71917c0.02802,0.21567,0.06113,0.43303,0.10019,0.647
		c0.03397,0.18935,0.07387,0.37954,0.12142,0.56634c0.02123,0.08321,0.04415,0.16642,0.06878,0.24878
		c0.02293,0.07557,0.04755,0.15113,0.07387,0.225c0.02463,0.06793,0.05095,0.13416,0.07981,0.19954
		c0.02632,0.05944,0.05349,0.11717,0.08491,0.17321c0.01104,0.01953,0.02208,0.03991,0.03397,0.05859
		c0.00169,0.00255,0.00254,0.00425,0.00424,0.0068v-0.0034c-0.00085-0.00084-0.00085-0.00254-0.00085-0.00424
		c0-0.00509-0.00085-0.01104-0.0017-0.01698c-0.00084-0.01103-0.00169-0.02292-0.00254-0.03396
		c-0.00424-0.0484-0.00849-0.0968-0.01189-0.14519c-0.00849-0.10614-0.01528-0.21312-0.02123-0.3201
		c-0.00679-0.12057-0.01189-0.24029-0.01698-0.36086c-0.00509-0.13416-0.00849-0.26831-0.01104-0.40247
		c-0.00679-0.30737-0.00849-0.61558-0.00679-0.9238c0.00254-0.36001,0.00934-0.72002,0.02038-1.08002
		c0.01274-0.41011,0.03057-0.82106,0.05264-1.23116c0.02547-0.4602,0.05519-0.9204,0.09-1.37975
		c0.03821-0.50775,0.08236-1.0155,0.13076-1.52325c0.02632-0.27086,0.05434-0.54256,0.08321-0.81342
		c0.01443-0.14009,0.02972-0.28019,0.04585-0.42029c0.00764-0.07047,0.01613-0.14179,0.02378-0.21311
		c0.00424-0.03566,0.00849-0.07132,0.01273-0.10698c0.0017-0.01783,0.00424-0.03566,0.00594-0.05434
		c0.00085-0.00424,0.00085-0.00849,0.0017-0.01358c0-0.00085,0-0.0017,0.00085-0.00255c0-0.00085,0-0.0017,0-0.0017
		c0-0.00084,0-0.00084,0-0.00084c0-0.00085,0-0.00085,0-0.00085h0.00594c0.00255,0,0.00594-0.00085,0.00849-0.00085
		c0.1783-0.00424,0.35661-0.00764,0.53492-0.01189c0.71323-0.01698,1.4273-0.03312,2.14053-0.05009
		c0.0917,0.11207,0.20038,0.20887,0.3218,0.28783c0.12906,0.08406,0.27086,0.14604,0.4203,0.1834
		c0.15113,0.03821,0.30737,0.05094,0.4619,0.03821c0.14859-0.01274,0.29378-0.04925,0.43133-0.10698
		c0.03226-0.01444,0.06453-0.02887,0.09594-0.045c0.03057-0.01613,0.06029-0.03312,0.09001-0.05179
		c0.06113-0.03736,0.11887-0.07896,0.17406-0.12566c0.11547-0.09765,0.21396-0.21397,0.29208-0.34388
		C17.11288,12.10023,17.18166,11.78862,17.146,11.48041z M3.61253,12.70987c-0.02632,0.06538-0.06453,0.12482-0.11377,0.17407
		c-0.0501,0.04924-0.10868,0.0883-0.17406,0.11377c-0.05944,0.02378-0.12397,0.03566-0.1885,0.03566
		c-0.06453,0-0.12821-0.01189-0.18764-0.03566c-0.06538-0.02547-0.12397-0.06453-0.17407-0.11377
		c-0.04924-0.04925-0.0883-0.10868-0.11377-0.17407c-0.02378-0.05943-0.03566-0.12311-0.03566-0.18764
		c0-0.06453,0.01188-0.12821,0.03566-0.1885c0.02547-0.06538,0.06453-0.12396,0.11377-0.17321
		c0.0501-0.0501,0.10868-0.0883,0.17407-0.11462c0.05943-0.02378,0.12311-0.03567,0.18764-0.03567
		c0.06453,0,0.12906,0.01189,0.1885,0.03567c0.06538,0.02632,0.12396,0.06453,0.17406,0.11462
		c0.04925,0.04925,0.08745,0.10783,0.11377,0.17321c0.02378,0.06029,0.03567,0.12397,0.03567,0.1885
		C3.64819,12.58676,3.6363,12.65044,3.61253,12.70987z M6.48921,7.22822L7.7934,7.21719L7.52169,8.38042L6.39157,7.45578
		L6.48921,7.22822z M5.83711,9.40186L5.80485,7.93465l0.68436,0.15199l0.03312,0.59775L5.83711,9.40186z M6.44845,11.30295
		l-0.21736-1.21673L7.0462,8.5859l0.31501,0.08745l0.01104,1.09701L6.44845,11.30295z M10.918,11.70881
		c-0.41265,0.52813-0.89578,0.72511-1.56655,0.73276s-1.53004-0.17321-2.22798-0.70983
		c0.65804-1.04692,0.87285-1.63703,0.99342-2.0777c0.12057-0.44067,0.14774-0.73191,0.20123-0.82955
		C8.37162,8.726,8.45228,8.8194,8.4769,9.17261c0.02462,0.35406-0.00679,0.96625-0.06283,1.39334
		c-0.05604,0.42709-0.13586,0.66907-0.15623,0.81682c-0.02038,0.14774,0.02038,0.20123,0.11632,0.11632
		c0.09595-0.08491,0.24793-0.30907,0.38888-0.64021c0.14094-0.33029,0.27086-0.76927,0.36256-1.12927
		C9.2173,9.3696,9.27079,9.0877,9.32768,8.96034C9.38372,8.83383,9.44401,8.861,9.47626,9.01383
		c0.03312,0.15283,0.03906,0.43218,0.00085,0.79304c-0.0382,0.36086-0.12057,0.80408-0.18934,1.11909
		c-0.06878,0.31586-0.12481,0.5035-0.13755,0.60284c-0.01359,0.10019,0.01613,0.11208,0.08915,0.07387
		c0.07302-0.03821,0.19104-0.12651,0.3201-0.30991c0.12906-0.1834,0.27001-0.4619,0.38548-0.74379
		c0.11632-0.28189,0.20718-0.56634,0.26576-0.82785c0.05859-0.26067,0.08491-0.49841,0.11632-0.66313
		c0.03057-0.16387,0.06538-0.25472,0.11972-0.26661c0.05434-0.01189,0.12821,0.05519,0.14434,0.29803
		c0.01613,0.24199-0.02547,0.65804-0.0883,1.04437c-0.06283,0.38548-0.14859,0.74124-0.22161,0.97305
		c-0.07302,0.2318-0.13501,0.34048-0.12736,0.39906c0.00679,0.05859,0.08321,0.06708,0.20548-0.03821
		c0.12142-0.10613,0.28869-0.32605,0.42793-0.63002c0.13925-0.30312,0.25133-0.6903,0.34388-1.0571
		c0.0917-0.36765,0.16557-0.71322,0.22415-0.97898c0.0518-0.23265,0.0917-0.40331,0.27256-0.38888l0.08321,0.0934
		C11.66349,10.34519,11.32471,11.18832,10.918,11.70881z M12.2604,10.77058c0.17406-0.21736,0.40161-1.57589,0.34727-3.61962
		c0.02208-0.26067,0.23435-0.30992,0.41435-0.31585c0.18-0.00679,0.32859,0.02972,0.41775,0.12906
		c0.0883,0.10019,0.11717,0.26322,0.12142,0.57313c0.00339,0.30907-0.01868,0.76587-0.15708,1.36956
		C13.2657,9.5097,13.01014,10.25943,12.2604,10.77058z M16.19673,11.83363c-0.02547,0.06368-0.06283,0.12057-0.11123,0.16897
		c-0.04755,0.0484-0.10528,0.08576-0.16897,0.11123c-0.05774,0.02292-0.12057,0.03481-0.1834,0.03481
		c-0.06283,0-0.12481-0.01189-0.1834-0.03481c-0.06283-0.02547-0.12057-0.06283-0.16812-0.11123
		c-0.0484-0.0484-0.08661-0.10528-0.11123-0.16897c-0.02293-0.05859-0.03481-0.12057-0.03481-0.1834s0.01189-0.12481,0.03481-0.1834
		c0.02462-0.06283,0.06283-0.12057,0.11123-0.16897c0.04755-0.04755,0.10528-0.08576,0.16897-0.11038
		c0.05774-0.02292,0.11972-0.03481,0.18255-0.03481c0.06284,0,0.12567,0.01189,0.1834,0.03481
		c0.06368,0.02463,0.12142,0.06284,0.16897,0.11038c0.0484,0.04839,0.08576,0.10613,0.11123,0.16897
		c0.02293,0.05859,0.03481,0.12057,0.03481,0.1834S16.21965,11.77504,16.19673,11.83363z"/>
</g>
</svg>
